<?xml version="1.0" standalone="no"?>
<!DOCTYPE svg PUBLIC "-//W3C//DTD SVG 20010904//EN"
 "http://www.w3.org/TR/2001/REC-SVG-20010904/DTD/svg10.dtd">
<svg version="1.0" xmlns="http://www.w3.org/2000/svg"
 width="512.000000pt" height="512.000000pt" viewBox="0 0 512.000000 512.000000"
 preserveAspectRatio="xMidYMid meet">
<metadata>
Created by potrace 1.16, written by Peter Selinger 2001-2019
</metadata>
<g transform="translate(0.000000,512.000000) scale(0.100000,-0.100000)"
fill="#000000" stroke="none">
<path d="M405 4468 c-3 -7 -4 -771 -3 -1698 l3 -1685 397 -3 398 -2 2 -238 3
-237 1395 0 1395 0 3 995 2 994 379 377 c333 331 380 381 395 424 19 57 20 95
5 150 -9 32 -44 74 -177 209 -176 178 -215 205 -291 206 -82 0 -119 -19 -218
-113 l-92 -89 -3 119 -3 118 -397 3 -398 2 -2 238 -3 237 -1393 3 c-1109 2
-1394 0 -1397 -10z m2715 -268 l0 -200 -948 0 c-724 0 -951 -3 -960 -12 -7 -7
-12 -34 -12 -60 l0 -48 -152 0 c-134 0 -157 -2 -185 -20 -59 -36 -63 -55 -63
-302 0 -315 2 -318 250 -318 l150 0 0 -80 0 -80 -150 0 c-169 0 -197 -8 -230
-63 -18 -29 -20 -51 -20 -255 0 -247 4 -266 63 -302 28 -18 51 -20 185 -20
l152 0 0 -100 0 -100 -152 0 c-134 0 -157 -2 -185 -20 -59 -36 -63 -55 -63
-302 0 -315 2 -318 250 -318 l150 0 0 -220 0 -220 -360 0 -360 0 0 1620 0
1620 1320 0 1320 0 0 -200z m800 -411 l0 -130 -758 -759 -757 -760 -71 -200
c-61 -176 -72 -199 -84 -185 -34 41 -61 45 -292 45 -327 0 -318 9 -318 -322 0
-327 -9 -318 322 -318 204 0 226 2 255 20 40 24 63 67 63 117 l0 38 168 58
c92 32 246 86 342 119 l175 60 478 477 477 476 0 -923 0 -922 -1320 0 -1320 0
0 1620 0 1620 1320 0 1320 0 0 -131z m456 62 c21 -16 103 -93 181 -172 157
-160 171 -185 137 -250 -20 -39 -132 -159 -148 -159 -6 0 -111 100 -234 223
l-222 222 72 71 c40 40 82 76 93 82 35 20 80 13 121 -17z m-3176 -291 l0 -240
-148 0 c-102 0 -152 4 -160 12 -17 17 -17 439 0 456 8 8 58 12 160 12 l148 0
0 -240z m3067 -132 l223 -223 -77 -77 -78 -78 -227 227 -228 228 72 72 c40 40
77 73 83 73 5 0 110 -100 232 -222z m-612 -758 c-261 -262 -475 -480 -475
-484 0 -14 31 -46 44 -46 6 0 223 212 481 470 258 259 474 470 480 470 13 0
85 -72 85 -85 0 -5 -303 -312 -672 -681 l-673 -671 -150 -52 c-82 -29 -185
-64 -227 -79 l-78 -27 -75 75 c-41 41 -75 81 -75 90 0 9 34 112 75 230 l76
215 677 677 677 678 152 -152 153 -153 -475 -475z m-2455 90 l0 -240 -148 0
c-102 0 -152 4 -160 12 -17 17 -17 439 0 456 8 8 58 12 160 12 l148 0 0 -240z
m0 -840 l0 -240 -148 0 c-102 0 -152 4 -160 12 -17 17 -17 439 0 456 8 8 58
12 160 12 l148 0 0 -240z m988 -212 c7 -7 12 -40 12 -79 0 -54 -8 -92 -41
-184 -45 -127 -44 -145 12 -145 31 0 40 -25 17 -48 -17 -17 -439 -17 -456 0
-17 17 -17 439 0 456 17 17 439 17 456 0z"/>
<path d="M1703 3380 c-59 -36 -63 -55 -63 -300 0 -245 4 -264 63 -300 29 -18
51 -20 257 -20 330 0 320 -9 320 322 0 327 9 318 -322 318 -204 0 -226 -2
-255 -20z m485 -72 c7 -7 12 -37 12 -67 0 -52 -1 -53 -18 -38 -10 10 -23 17
-28 17 -5 0 -58 -50 -119 -110 l-111 -110 -44 45 c-46 46 -78 56 -100 30 -6
-8 -9 -23 -6 -33 7 -20 141 -142 156 -142 12 0 41 28 164 157 l106 111 0 -152
c0 -105 -4 -156 -12 -164 -17 -17 -439 -17 -456 0 -17 17 -17 439 0 456 17 17
439 17 456 0z"/>
<path d="M1703 2581 c-59 -37 -63 -56 -63 -301 0 -245 4 -264 63 -300 29 -18
51 -20 257 -20 332 0 322 -9 318 330 l-3 230 -38 37 -37 38 -233 3 c-217 2
-234 1 -264 -17z m485 -73 c7 -7 12 -39 12 -78 -1 -49 -3 -61 -11 -47 -21 36
-52 19 -154 -83 -55 -55 -104 -100 -110 -100 -6 0 -29 18 -50 40 -22 22 -49
40 -61 40 -29 0 -49 -25 -38 -48 16 -31 130 -132 150 -132 11 0 73 54 146 127
l128 128 0 -146 c0 -99 -4 -149 -12 -157 -17 -17 -439 -17 -456 0 -17 17 -17
439 0 456 17 17 439 17 456 0z"/>
<path d="M2892 1907 c-72 -73 -132 -139 -132 -148 0 -20 20 -39 40 -39 9 0 78
63 154 139 124 126 137 141 126 160 -22 43 -50 26 -188 -112z"/>
</g>
</svg>
